<svg width="1093" height="280" viewBox="0 0 1093 280" fill="none" xmlns="http://www.w3.org/2000/svg">
<mask id="path-1-outside-1_64_2" maskUnits="userSpaceOnUse" x="0" y="0" width="1093" height="280" fill="black">
<rect fill="white" width="1093" height="280"/>
<path d="M66.332 219C46.932 219 30.732 216.3 17.732 210.9C10.932 208.3 5.63203 205.5 1.83203 202.5L15.332 178.5H18.332C20.932 180.7 24.532 183 29.132 185.4C38.732 189.8 50.132 192 63.332 192C75.132 192 84.032 189.3 90.032 183.9C96.232 178.5 99.332 171.2 99.332 162C99.332 156.2 97.632 151.2 94.232 147C90.832 142.6 86.532 138.9 81.332 135.9C76.132 132.7 69.032 129 60.032 124.8C48.032 119.2 38.232 114 30.632 109.2C23.032 104.2 16.532 97.7 11.132 89.7C5.93203 81.7 3.33203 71.8 3.33203 60C3.33203 49.4 6.13203 39.8 11.732 31.2C17.332 22.4 25.432 15.5 36.032 10.5C46.632 5.49999 59.232 2.99999 73.832 2.99999C91.432 2.99999 106.732 5.79999 119.732 11.4C125.532 13.6 130.732 16.3 135.332 19.5L121.832 43.5H118.832C116.632 41.7 113.232 39.5 108.632 36.9C99.032 32.3 88.432 30 76.832 30C68.032 30 60.532 32.8 54.332 38.4C48.332 43.8 45.332 50 45.332 57C45.332 62.8 47.032 67.9 50.432 72.3C53.832 76.5 58.132 80.2 63.332 83.4C68.532 86.4 75.632 90 84.632 94.2C96.632 99.8 106.432 105.1 114.032 110.1C121.632 114.9 128.032 121.3 133.232 129.3C138.632 137.3 141.332 147.2 141.332 159C141.332 170.6 138.432 181 132.632 190.2C127.032 199.2 118.532 206.3 107.132 211.5C95.932 216.5 82.332 219 66.332 219ZM231.379 219C182.379 219 157.879 193 157.879 141C157.879 115 163.879 95.5 175.879 82.5C187.879 69.5 205.379 63 228.379 63C239.779 63 251.979 65.5 264.979 70.5C268.979 72.1 273.779 74.6 279.379 78L265.879 102H262.879C260.079 99.4 257.279 97.4 254.479 96C247.479 92 239.779 90 231.379 90C221.179 90 213.379 93.9 207.979 101.7C202.579 109.3 199.879 122.4 199.879 141C199.879 159.8 202.679 173 208.279 180.6C213.879 188.2 222.579 192 234.379 192C242.779 192 250.479 190 257.479 186C260.279 184.6 263.079 182.6 265.879 180H268.879L282.379 204C276.779 207.4 271.979 209.9 267.979 211.5C255.979 216.5 243.779 219 231.379 219ZM303.262 18L315.262 5.99999H345.262V76.5C347.262 74.5 350.162 72.3 353.962 69.9C361.962 65.3 370.062 63 378.262 63C396.462 63 410.462 68 420.262 78C430.262 87.8 435.262 101.8 435.262 120V216H393.262V120C393.262 110.6 391.262 103.5 387.262 98.7C383.262 93.9 377.762 91.5 370.762 91.5C364.162 91.5 357.862 94.5 351.862 100.5C349.862 102.9 347.662 105.9 345.262 109.5V216H303.262V18ZM535.82 219C485.82 219 460.82 193 460.82 141C460.82 115.4 466.62 96 478.22 82.8C489.82 69.6 506.02 63 526.82 63C547.42 63 563.52 69.4 575.12 82.2C586.92 95 592.82 113.6 592.82 138V145.5L583.82 154.5H502.82C502.82 179.5 514.82 192 538.82 192C547.22 192 554.92 190 561.92 186C564.72 184.6 567.52 182.6 570.32 180H573.32L586.82 204C581.22 207.4 576.42 209.9 572.42 211.5C560.42 216.5 548.22 219 535.82 219ZM550.82 127.5C550.82 115.5 548.42 106.3 543.62 99.9C539.02 93.3 533.42 90 526.82 90C520.22 90 514.52 93.3 509.72 99.9C505.12 106.3 502.82 115.5 502.82 127.5H550.82ZM670.68 219C652.68 219 638.18 212.4 627.18 199.2C616.18 185.8 610.68 166.4 610.68 141C610.68 115.4 616.28 96 627.48 82.8C638.88 69.6 654.28 63 673.68 63C677.88 63 681.48 63.4 684.48 64.2C687.68 65 691.28 66.1 695.28 67.5L703.68 72V18L715.68 5.99999H745.68V216H715.68L712.68 198H711.18C707.78 202.4 704.38 205.9 700.98 208.5C692.58 215.5 682.48 219 670.68 219ZM678.18 190.5C684.78 190.5 691.08 187.5 697.08 181.5C699.08 179.1 701.28 176.1 703.68 172.5V99L697.38 94.5C691.78 91.5 686.38 90 681.18 90C672.18 90 665.18 93.9 660.18 101.7C655.18 109.5 652.68 122.6 652.68 141C652.68 158.4 654.98 171 659.58 178.8C664.38 186.6 670.58 190.5 678.18 190.5ZM802.551 46.5C796.551 46.5 791.251 44.3 786.651 39.9C782.251 35.3 780.051 30 780.051 24C780.051 18 782.251 12.8 786.651 8.39999C791.251 3.79999 796.551 1.49999 802.551 1.49999C808.551 1.49999 813.751 3.79999 818.151 8.39999C822.751 12.8 825.051 18 825.051 24C825.051 30 822.751 35.3 818.151 39.9C813.751 44.3 808.551 46.5 802.551 46.5ZM781.551 216V66H823.551V216H781.551ZM861.133 93H844.633V66H861.133V54C861.133 38.6 866.233 26.3 876.433 17.1C886.833 7.69999 901.233 2.99999 919.633 2.99999C929.033 2.99999 939.533 5.49999 951.133 10.5C954.933 12.1 959.433 14.6 964.633 18L951.133 42H948.133C945.533 39.8 942.933 37.8 940.333 36C934.533 32 928.633 30 922.633 30C917.233 30 912.633 32.2 908.833 36.6C905.033 40.8 903.133 46.6 903.133 54V66H940.633V93H903.133V216H861.133V93ZM985.703 279C977.703 279 969.903 277.5 962.303 274.5C958.503 273.3 955.303 271.8 952.703 270L963.203 244.5H966.203C968.203 246.5 969.803 247.8 971.003 248.4C974.803 250.8 978.703 252 982.703 252C987.503 252 991.903 250.2 995.903 246.6C999.903 243 1002.8 237.8 1004.6 231L1008.8 216H997.403L947.903 66H987.203L1017.2 163.5C1018 166.7 1018.6 170.2 1019 174L1019.6 180H1020.8L1021.4 174C1021.8 170.2 1022.4 166.7 1023.2 163.5L1048.7 66H1090.7L1041.2 231C1031.2 263 1012.7 279 985.703 279Z"/>
</mask>
<path d="M17.732 210.9L18.1156 209.977L18.1025 209.971L18.0892 209.966L17.732 210.9ZM1.83203 202.5L0.960456 202.01L0.541233 202.755L1.21239 203.285L1.83203 202.5ZM15.332 178.5V177.5H14.7472L14.4605 178.01L15.332 178.5ZM18.332 178.5L18.978 177.737L18.6983 177.5H18.332V178.5ZM29.132 185.4L28.6695 186.287L28.6921 186.298L28.7154 186.309L29.132 185.4ZM90.032 183.9L89.3753 183.146L89.3691 183.151L89.3631 183.157L90.032 183.9ZM94.232 147L93.4408 147.611L93.4477 147.62L93.4548 147.629L94.232 147ZM81.332 135.9L80.8079 136.752L80.82 136.759L80.8323 136.766L81.332 135.9ZM30.632 109.2L30.0824 110.035L30.0902 110.041L30.098 110.045L30.632 109.2ZM11.132 89.7L10.2936 90.245L10.2983 90.2523L10.3032 90.2595L11.132 89.7ZM11.732 31.2L12.5701 31.7457L12.5757 31.7369L11.732 31.2ZM36.032 10.5L35.6054 9.59555H35.6054L36.032 10.5ZM119.732 11.4L119.336 12.3184L119.357 12.3271L119.377 12.335L119.732 11.4ZM135.332 19.5L136.204 19.9902L136.649 19.1981L135.903 18.6791L135.332 19.5ZM121.832 43.5V44.5H122.417L122.704 43.9902L121.832 43.5ZM118.832 43.5L118.199 44.2739L118.475 44.5H118.832V43.5ZM108.632 36.9L109.124 36.0294L109.095 36.0128L109.064 35.9982L108.632 36.9ZM54.332 38.4L55.001 39.1433L55.0023 39.1421L54.332 38.4ZM50.432 72.3L49.6408 72.9114L49.6477 72.9204L49.6548 72.9292L50.432 72.3ZM63.332 83.4L62.8079 84.2516L62.82 84.2591L62.8323 84.2662L63.332 83.4ZM84.632 94.2L85.0549 93.2938L84.632 94.2ZM114.032 110.1L113.482 110.935L113.49 110.941L113.498 110.945L114.032 110.1ZM133.232 129.3L132.394 129.845L132.398 129.852L132.403 129.859L133.232 129.3ZM132.632 190.2L131.786 189.667L131.783 189.672L132.632 190.2ZM107.132 211.5L107.54 212.413L107.547 212.41L107.132 211.5ZM66.332 219V218C47.0172 218 30.9574 215.311 18.1156 209.977L17.732 210.9L17.3484 211.823C30.5066 217.289 46.8469 220 66.332 220V219ZM17.732 210.9L18.0892 209.966C11.3411 207.386 6.14299 204.629 2.45168 201.715L1.83203 202.5L1.21239 203.285C5.12108 206.371 10.5229 209.214 17.3749 211.834L17.732 210.9ZM1.83203 202.5L2.70361 202.99L16.2036 178.99L15.332 178.5L14.4605 178.01L0.960456 202.01L1.83203 202.5ZM15.332 178.5V179.5H18.332V178.5V177.5H15.332V178.5ZM18.332 178.5L17.6861 179.263C20.3636 181.529 24.0342 183.868 28.6695 186.287L29.132 185.4L29.5946 184.513C25.0298 182.132 21.5004 179.871 18.978 177.737L18.332 178.5ZM29.132 185.4L28.7154 186.309C38.4745 190.782 50.0231 193 63.332 193V192V191C50.2409 191 38.9896 188.818 29.5487 184.491L29.132 185.4ZM63.332 192V193C75.2669 193 84.4483 190.271 90.701 184.643L90.032 183.9L89.3631 183.157C83.6158 188.329 74.9971 191 63.332 191V192ZM90.032 183.9L90.6888 184.654C97.1343 179.04 100.332 171.451 100.332 162H99.332H98.332C98.332 170.949 95.3298 177.96 89.3753 183.146L90.032 183.9ZM99.332 162H100.332C100.332 155.989 98.5643 150.762 95.0093 146.371L94.232 147L93.4548 147.629C96.6997 151.638 98.332 156.411 98.332 162H99.332ZM94.232 147L95.0233 146.389C91.5375 141.877 87.1355 138.094 81.8318 135.034L81.332 135.9L80.8323 136.766C85.9285 139.706 90.1266 143.323 93.4408 147.611L94.232 147ZM81.332 135.9L81.8561 135.048C76.6097 131.82 69.4711 128.101 60.4549 123.894L60.032 124.8L59.6092 125.706C68.593 129.899 75.6544 133.58 80.8079 136.752L81.332 135.9ZM60.032 124.8L60.4549 123.894C48.4771 118.304 38.7179 113.124 31.166 108.355L30.632 109.2L30.098 110.045C37.7462 114.876 47.587 120.096 59.6092 125.706L60.032 124.8ZM30.632 109.2L31.1817 108.365C23.6987 103.442 17.2915 97.0378 11.9609 89.1405L11.132 89.7L10.3032 90.2595C15.7725 98.3622 22.3654 104.958 30.0824 110.035L30.632 109.2ZM11.132 89.7L11.9705 89.155C6.89842 81.3518 4.33203 71.6524 4.33203 60H3.33203H2.33203C2.33203 71.9475 4.96564 82.0481 10.2936 90.245L11.132 89.7ZM3.33203 60H4.33203C4.33203 49.587 7.07937 40.1778 12.57 31.7457L11.732 31.2L10.894 30.6543C5.1847 39.4222 2.33203 49.213 2.33203 60H3.33203ZM11.732 31.2L12.5757 31.7369C18.062 23.1155 26.0079 16.334 36.4587 11.4044L36.032 10.5L35.6054 9.59555C24.8562 14.6659 16.602 21.6845 10.8884 30.6631L11.732 31.2ZM36.032 10.5L36.4587 11.4044C46.8966 6.48085 59.3442 3.99998 73.832 3.99998V2.99998V1.99998C59.1198 1.99998 46.3675 4.51912 35.6054 9.59555L36.032 10.5ZM73.832 2.99998V3.99998C91.3281 3.99998 106.488 6.78362 119.336 12.3184L119.732 11.4L120.128 10.4816C106.976 4.81635 91.536 1.99998 73.832 1.99998V2.99998ZM119.732 11.4L119.377 12.335C125.109 14.509 130.235 17.1723 134.761 20.3209L135.332 19.5L135.903 18.6791C131.229 15.4277 125.955 12.691 120.087 10.465L119.732 11.4ZM135.332 19.5L134.46 19.0097L120.96 43.0097L121.832 43.5L122.704 43.9902L136.204 19.9902L135.332 19.5ZM121.832 43.5V42.5H118.832V43.5V44.5H121.832V43.5ZM118.832 43.5L119.465 42.726C117.198 40.8713 113.739 38.638 109.124 36.0294L108.632 36.9L108.14 37.7706C112.725 40.362 116.066 42.5287 118.199 44.2739L118.832 43.5ZM108.632 36.9L109.064 35.9982C99.3175 31.3279 88.568 29 76.832 29V30V31C88.2961 31 98.7466 33.2721 108.2 37.8018L108.632 36.9ZM76.832 30V29C67.7988 29 60.056 31.8825 53.6617 37.6579L54.332 38.4L55.0023 39.1421C61.0081 33.7175 68.2652 31 76.832 31V30ZM54.332 38.4L53.6631 37.6567C47.4879 43.2143 44.332 49.6719 44.332 57H45.332H46.332C46.332 50.3281 49.1761 44.3857 55.001 39.1433L54.332 38.4ZM45.332 57H44.332C44.332 63.011 46.0993 68.3284 49.6408 72.9114L50.432 72.3L51.2233 71.6885C47.9648 67.4716 46.332 62.5889 46.332 57H45.332ZM50.432 72.3L49.6548 72.9292C53.1346 77.2278 57.524 81 62.8079 84.2516L63.332 83.4L63.8561 82.5483C58.7401 79.4 54.5295 75.7722 51.2093 71.6708L50.432 72.3ZM63.332 83.4L62.8323 84.2662C68.0682 87.2869 75.1975 90.9007 84.2092 95.1062L84.632 94.2L85.0549 93.2938C76.0666 89.0993 68.9959 85.5131 63.8318 82.5338L63.332 83.4ZM84.632 94.2L84.2092 95.1062C96.1831 100.694 105.937 105.971 113.482 110.935L114.032 110.1L114.582 109.265C106.927 104.229 97.081 98.906 85.0549 93.2938L84.632 94.2ZM114.032 110.1L113.498 110.945C120.969 115.664 127.267 121.958 132.394 129.845L133.232 129.3L134.07 128.755C128.797 120.642 122.295 114.136 114.566 109.255L114.032 110.1ZM133.232 129.3L132.403 129.859C137.669 137.661 140.332 147.355 140.332 159H141.332H142.332C142.332 147.045 139.595 136.939 134.061 128.741L133.232 129.3ZM141.332 159H140.332C140.332 170.424 137.479 180.637 131.786 189.667L132.632 190.2L133.478 190.733C139.385 181.363 142.332 170.776 142.332 159H141.332ZM132.632 190.2L131.783 189.672C126.305 198.476 117.971 205.457 106.717 210.59L107.132 211.5L107.547 212.41C119.093 207.143 127.759 199.924 133.481 190.728L132.632 190.2ZM107.132 211.5L106.724 210.587C95.6854 215.515 82.2325 218 66.332 218V219V220C82.4316 220 96.1787 217.485 107.54 212.413L107.132 211.5ZM175.879 82.5L176.614 83.1783L175.879 82.5ZM264.979 70.5L265.35 69.5714L265.338 69.5667L264.979 70.5ZM279.379 78L280.25 78.4903L280.725 77.6472L279.898 77.1452L279.379 78ZM265.879 102V103H266.464L266.75 102.49L265.879 102ZM262.879 102L262.198 102.733L262.486 103H262.879V102ZM254.479 96L253.983 96.8682L254.007 96.882L254.032 96.8944L254.479 96ZM207.979 101.7L208.794 102.279L208.801 102.269L207.979 101.7ZM208.279 180.6L207.474 181.193L208.279 180.6ZM257.479 186L257.032 185.106L257.007 185.118L256.983 185.132L257.479 186ZM265.879 180V179H265.486L265.198 179.267L265.879 180ZM268.879 180L269.75 179.51L269.464 179H268.879V180ZM282.379 204L282.898 204.855L283.725 204.353L283.25 203.51L282.379 204ZM267.979 211.5L267.608 210.572L267.601 210.574L267.594 210.577L267.979 211.5ZM231.379 219V218C207.049 218 188.981 211.548 176.982 198.814C164.972 186.069 158.879 166.86 158.879 141H157.879H156.879C156.879 167.14 163.036 186.931 175.526 200.186C188.027 213.452 206.709 220 231.379 220V219ZM157.879 141H158.879C158.879 115.135 164.849 95.923 176.614 83.1783L175.879 82.5L175.144 81.8217C162.908 95.077 156.879 114.865 156.879 141H157.879ZM175.879 82.5L176.614 83.1783C188.372 70.4404 205.57 64 228.379 64V63V62C205.188 62 187.386 68.5596 175.144 81.8217L175.879 82.5ZM228.379 63V64C239.632 64 251.71 66.4679 264.62 71.4333L264.979 70.5L265.338 69.5667C252.248 64.5321 239.926 62 228.379 62V63ZM264.979 70.5L264.608 71.4285C268.537 73.0004 273.285 75.4703 278.86 78.8548L279.379 78L279.898 77.1452C274.272 73.7297 269.42 71.1996 265.35 69.5715L264.979 70.5ZM279.379 78L278.507 77.5097L265.007 101.51L265.879 102L266.75 102.49L280.25 78.4903L279.379 78ZM265.879 102V101H262.879V102V103H265.879V102ZM262.879 102L263.559 101.267C260.704 98.6162 257.827 96.5562 254.926 95.1056L254.479 96L254.032 96.8944C256.73 98.2438 259.453 100.184 262.198 102.733L262.879 102ZM254.479 96L254.975 95.1318C247.818 91.0417 239.945 89 231.379 89V90V91C239.612 91 247.14 92.9583 253.983 96.8682L254.479 96ZM231.379 90V89C220.88 89 212.759 93.0379 207.157 101.131L207.979 101.7L208.801 102.269C213.998 94.7621 221.478 91 231.379 91V90ZM207.979 101.7L207.164 101.121C201.572 108.99 198.879 122.364 198.879 141H199.879H200.879C200.879 122.436 203.586 109.61 208.794 102.279L207.979 101.7ZM199.879 141H198.879C198.879 159.836 201.672 173.319 207.474 181.193L208.279 180.6L209.084 180.007C203.686 172.681 200.879 159.764 200.879 141H199.879ZM208.279 180.6L207.474 181.193C213.309 189.113 222.35 193 234.379 193V192V191C222.808 191 214.449 187.287 209.084 180.007L208.279 180.6ZM234.379 192V193C242.945 193 250.818 190.958 257.975 186.868L257.479 186L256.983 185.132C250.14 189.042 242.612 191 234.379 191V192ZM257.479 186L257.926 186.894C260.827 185.444 263.704 183.384 266.559 180.733L265.879 180L265.198 179.267C262.453 181.816 259.73 183.756 257.032 185.106L257.479 186ZM265.879 180V181H268.879V180V179H265.879V180ZM268.879 180L268.007 180.49L281.507 204.49L282.379 204L283.25 203.51L269.75 179.51L268.879 180ZM282.379 204L281.86 203.145C276.285 206.53 271.537 209 267.608 210.572L267.979 211.5L268.35 212.428C272.42 210.8 277.272 208.27 282.898 204.855L282.379 204ZM267.979 211.5L267.594 210.577C255.71 215.529 243.641 218 231.379 218V219V220C243.917 220 256.248 217.471 268.364 212.423L267.979 211.5ZM303.262 18L302.555 17.2929L302.262 17.5858V18H303.262ZM315.262 5.99998V4.99998H314.848L314.555 5.29288L315.262 5.99998ZM345.262 5.99998H346.262V4.99998H345.262V5.99998ZM345.262 76.5H344.262V78.9142L345.969 77.2071L345.262 76.5ZM353.962 69.9L353.463 69.0331L353.445 69.0434L353.428 69.0545L353.962 69.9ZM420.262 78L419.548 78.6999L419.555 78.7071L419.562 78.7142L420.262 78ZM435.262 216V217H436.262V216H435.262ZM393.262 216H392.262V217H393.262V216ZM387.262 98.7L388.03 98.0598L387.262 98.7ZM351.862 100.5L351.155 99.7929L351.123 99.825L351.094 99.8598L351.862 100.5ZM345.262 109.5L344.43 108.945L344.262 109.197V109.5H345.262ZM345.262 216V217H346.262V216H345.262ZM303.262 216H302.262V217H303.262V216ZM303.262 18L303.969 18.7071L315.969 6.70709L315.262 5.99998L314.555 5.29288L302.555 17.2929L303.262 18ZM315.262 5.99998V6.99998H345.262V5.99998V4.99998H315.262V5.99998ZM345.262 5.99998H344.262V76.5H345.262H346.262V5.99998H345.262ZM345.262 76.5L345.969 77.2071C347.895 75.2808 350.726 73.1261 354.496 70.7455L353.962 69.9L353.428 69.0545C349.597 71.4738 346.628 73.7192 344.555 75.7929L345.262 76.5ZM353.962 69.9L354.46 70.7669C362.328 66.2429 370.258 64 378.262 64V63V62C369.866 62 361.596 64.357 353.463 69.0331L353.962 69.9ZM378.262 63V64C396.277 64 409.987 68.9447 419.548 78.6999L420.262 78L420.976 77.3001C410.936 67.0553 396.646 62 378.262 62V63ZM420.262 78L419.562 78.7142C429.317 88.2744 434.262 101.984 434.262 120H435.262H436.262C436.262 101.616 431.206 87.3256 420.962 77.2858L420.262 78ZM435.262 120H434.262V216H435.262H436.262V120H435.262ZM435.262 216V215H393.262V216V217H435.262V216ZM393.262 216H394.262V120H393.262H392.262V216H393.262ZM393.262 120H394.262C394.262 110.48 392.239 103.111 388.03 98.0598L387.262 98.7L386.493 99.3402C390.284 103.889 392.262 110.72 392.262 120H393.262ZM387.262 98.7L388.03 98.0598C383.816 93.0026 378.018 90.5 370.762 90.5V91.5V92.5C377.505 92.5 382.708 94.7974 386.493 99.3402L387.262 98.7ZM370.762 91.5V90.5C363.827 90.5 357.286 93.6614 351.155 99.7929L351.862 100.5L352.569 101.207C358.437 95.3386 364.497 92.5 370.762 92.5V91.5ZM351.862 100.5L351.094 99.8598C349.064 102.295 346.842 105.326 344.43 108.945L345.262 109.5L346.094 110.055C348.481 106.474 350.66 103.505 352.63 101.14L351.862 100.5ZM345.262 109.5H344.262V216H345.262H346.262V109.5H345.262ZM345.262 216V215H303.262V216V217H345.262V216ZM303.262 216H304.262V18H303.262H302.262V216H303.262ZM478.22 82.8L478.971 83.4601L478.22 82.8ZM575.12 82.2L574.379 82.8715L574.385 82.8778L575.12 82.2ZM592.82 145.5L593.527 146.207L593.82 145.914V145.5H592.82ZM583.82 154.5V155.5H584.235L584.527 155.207L583.82 154.5ZM502.82 154.5V153.5H501.82V154.5H502.82ZM561.92 186L561.473 185.106L561.448 185.118L561.424 185.132L561.92 186ZM570.32 180V179H569.928L569.64 179.267L570.32 180ZM573.32 180L574.192 179.51L573.905 179H573.32V180ZM586.82 204L587.339 204.855L588.166 204.353L587.692 203.51L586.82 204ZM572.42 211.5L572.049 210.572L572.042 210.574L572.036 210.577L572.42 211.5ZM550.82 127.5V128.5H551.82V127.5H550.82ZM543.62 99.9L542.8 100.472L542.81 100.486L542.82 100.5L543.62 99.9ZM509.72 99.9L508.912 99.3118L508.908 99.3164L509.72 99.9ZM502.82 127.5H501.82V128.5H502.82V127.5ZM535.82 219V218C510.985 218 492.539 211.545 480.291 198.807C468.036 186.062 461.82 166.855 461.82 141H460.82H459.82C459.82 167.145 466.104 186.938 478.849 200.193C491.602 213.455 510.656 220 535.82 220V219ZM460.82 141H461.82C461.82 115.534 467.592 96.4097 478.971 83.4601L478.22 82.8L477.469 82.1399C465.649 95.5903 459.82 115.266 459.82 141H460.82ZM478.22 82.8L478.971 83.4601C490.346 70.5162 506.25 64 526.82 64V63V62C505.791 62 489.294 68.6838 477.469 82.1399L478.22 82.8ZM526.82 63V64C547.197 64 563.005 70.3209 574.379 82.8715L575.12 82.2L575.861 81.5285C564.035 68.4791 547.643 62 526.82 62V63ZM575.12 82.2L574.385 82.8778C585.957 95.4303 591.82 113.75 591.82 138H592.82H593.82C593.82 113.45 587.884 94.5697 575.856 81.5222L575.12 82.2ZM592.82 138H591.82V145.5H592.82H593.82V138H592.82ZM592.82 145.5L592.113 144.793L583.113 153.793L583.82 154.5L584.527 155.207L593.527 146.207L592.82 145.5ZM583.82 154.5V153.5H502.82V154.5V155.5H583.82V154.5ZM502.82 154.5H501.82C501.82 167.144 504.854 176.813 511.099 183.318C517.351 189.83 526.656 193 538.82 193V192V191C526.985 191 518.29 187.92 512.542 181.932C506.786 175.937 503.82 166.856 503.82 154.5H502.82ZM538.82 192V193C547.387 193 555.259 190.958 562.416 186.868L561.92 186L561.424 185.132C554.582 189.042 547.054 191 538.82 191V192ZM561.92 186L562.368 186.894C565.269 185.444 568.146 183.384 571.001 180.733L570.32 180L569.64 179.267C566.895 181.816 564.172 183.756 561.473 185.106L561.92 186ZM570.32 180V181H573.32V180V179H570.32V180ZM573.32 180L572.449 180.49L585.949 204.49L586.82 204L587.692 203.51L574.192 179.51L573.32 180ZM586.82 204L586.301 203.145C580.727 206.53 575.979 209 572.049 210.572L572.42 211.5L572.792 212.428C576.862 210.8 581.714 208.27 587.339 204.855L586.82 204ZM572.42 211.5L572.036 210.577C560.152 215.529 548.082 218 535.82 218V219V220C548.359 220 560.689 217.471 572.805 212.423L572.42 211.5ZM550.82 127.5H551.82C551.82 115.386 549.401 105.94 544.42 99.3L543.62 99.9L542.82 100.5C547.44 106.66 549.82 115.614 549.82 127.5H550.82ZM543.62 99.9L544.441 99.3282C539.7 92.5265 533.821 89 526.82 89V90V91C533.02 91 538.341 94.0735 542.8 100.472L543.62 99.9ZM526.82 90V89C519.824 89 513.85 92.5216 508.912 99.3118L509.72 99.9L510.529 100.488C515.191 94.0784 520.616 91 526.82 91V90ZM509.72 99.9L508.908 99.3164C504.137 105.954 501.82 115.393 501.82 127.5H502.82H503.82C503.82 115.607 506.103 106.646 510.532 100.484L509.72 99.9ZM502.82 127.5V128.5H550.82V127.5V126.5H502.82V127.5ZM627.18 199.2L626.407 199.835L626.411 199.84L627.18 199.2ZM627.48 82.8L626.723 82.1463L626.717 82.153L627.48 82.8ZM684.48 64.2L684.222 65.1662L684.23 65.1682L684.237 65.1701L684.48 64.2ZM695.28 67.5L695.752 66.6185L695.683 66.5818L695.61 66.5561L695.28 67.5ZM703.68 72L703.207 72.8815L704.68 73.6702V72H703.68ZM703.68 18L702.973 17.2929L702.68 17.5858V18H703.68ZM715.68 5.99998V4.99998H715.266L714.973 5.29288L715.68 5.99998ZM745.68 5.99998H746.68V4.99998H745.68V5.99998ZM745.68 216V217H746.68V216H745.68ZM715.68 216L714.693 216.164L714.833 217H715.68V216ZM712.68 198L713.666 197.836L713.527 197H712.68V198ZM711.18 198V197H710.689L710.388 197.389L711.18 198ZM700.98 208.5L700.372 207.706L700.356 207.718L700.34 207.732L700.98 208.5ZM697.08 181.5L697.787 182.207L697.819 182.175L697.848 182.14L697.08 181.5ZM703.68 172.5L704.512 173.055L704.68 172.803V172.5H703.68ZM703.68 99H704.68V98.4854L704.261 98.1863L703.68 99ZM697.38 94.5L697.961 93.6863L697.909 93.6489L697.852 93.6185L697.38 94.5ZM660.18 101.7L661.022 102.24L660.18 101.7ZM659.58 178.8L658.718 179.308L658.723 179.316L658.728 179.324L659.58 178.8ZM670.68 219V218C652.96 218 638.748 211.52 627.948 198.56L627.18 199.2L626.411 199.84C637.612 213.28 652.399 220 670.68 220V219ZM627.18 199.2L627.953 198.566C617.154 185.411 611.68 166.273 611.68 141H610.68H609.68C609.68 166.527 615.205 186.189 626.407 199.835L627.18 199.2ZM610.68 141H611.68C611.68 115.527 617.254 96.397 628.242 83.447L627.48 82.8L626.717 82.153C615.305 95.6029 609.68 115.273 609.68 141H610.68ZM627.48 82.8L628.237 83.4536C639.424 70.4998 654.534 64 673.68 64V63V62C654.026 62 638.336 68.7001 626.723 82.1464L627.48 82.8ZM673.68 63V64C677.821 64 681.33 64.3949 684.222 65.1662L684.48 64.2L684.737 63.2337C681.63 62.405 677.938 62 673.68 62V63ZM684.48 64.2L684.237 65.1701C687.401 65.961 690.971 67.0513 694.949 68.4438L695.28 67.5L695.61 66.5561C691.589 65.1487 687.959 64.039 684.722 63.2298L684.48 64.2ZM695.28 67.5L694.807 68.3815L703.207 72.8815L703.68 72L704.152 71.1185L695.752 66.6185L695.28 67.5ZM703.68 72H704.68V18H703.68H702.68V72H703.68ZM703.68 18L704.387 18.7071L716.387 6.70709L715.68 5.99998L714.973 5.29288L702.973 17.2929L703.68 18ZM715.68 5.99998V6.99998H745.68V5.99998V4.99998H715.68V5.99998ZM745.68 5.99998H744.68V216H745.68H746.68V5.99998H745.68ZM745.68 216V215H715.68V216V217H745.68V216ZM715.68 216L716.666 215.836L713.666 197.836L712.68 198L711.693 198.164L714.693 216.164L715.68 216ZM712.68 198V197H711.18V198V199H712.68V198ZM711.18 198L710.388 197.389C707.027 201.739 703.686 205.171 700.372 207.706L700.98 208.5L701.587 209.294C705.073 206.629 708.533 203.061 711.971 198.611L711.18 198ZM700.98 208.5L700.34 207.732C692.134 214.57 682.266 218 670.68 218V219V220C682.694 220 693.025 216.43 701.62 209.268L700.98 208.5ZM678.18 190.5V191.5C685.115 191.5 691.655 188.339 697.787 182.207L697.08 181.5L696.373 180.793C690.504 186.661 684.445 189.5 678.18 189.5V190.5ZM697.08 181.5L697.848 182.14C699.878 179.705 702.099 176.674 704.512 173.055L703.68 172.5L702.848 171.945C700.461 175.526 698.282 178.495 696.311 180.86L697.08 181.5ZM703.68 172.5H704.68V99H703.68H702.68V172.5H703.68ZM703.68 99L704.261 98.1863L697.961 93.6863L697.38 94.5L696.798 95.3137L703.098 99.8137L703.68 99ZM697.38 94.5L697.852 93.6185C692.139 90.5578 686.577 89 681.18 89V90V91C686.182 91 691.421 92.4422 696.907 95.3815L697.38 94.5ZM681.18 90V89C671.827 89 664.515 93.0837 659.338 101.16L660.18 101.7L661.022 102.24C665.844 94.7163 672.532 91 681.18 91V90ZM660.18 101.7L659.338 101.16C654.174 109.215 651.68 122.565 651.68 141H652.68H653.68C653.68 122.635 656.185 109.785 661.022 102.24L660.18 101.7ZM652.68 141H651.68C651.68 158.441 653.977 171.268 658.718 179.308L659.58 178.8L660.441 178.292C655.983 170.732 653.68 158.359 653.68 141H652.68ZM659.58 178.8L658.728 179.324C663.667 187.349 670.157 191.5 678.18 191.5V190.5V189.5C671.003 189.5 665.093 185.851 660.431 178.276L659.58 178.8ZM786.651 39.9L785.928 40.5912L785.943 40.6073L785.96 40.6226L786.651 39.9ZM786.651 8.39999L785.944 7.69289L786.651 8.39999ZM818.151 8.39999L817.428 9.09121L817.443 9.10727L817.46 9.12263L818.151 8.39999ZM818.151 39.9L817.444 39.1929L818.151 39.9ZM781.551 216H780.551V217H781.551V216ZM781.551 66V65H780.551V66H781.551ZM823.551 66H824.551V65H823.551V66ZM823.551 216V217H824.551V216H823.551ZM802.551 46.5V45.5C796.825 45.5 791.768 43.4113 787.342 39.1774L786.651 39.9L785.96 40.6226C790.733 45.1887 796.276 47.5 802.551 47.5V46.5ZM786.651 39.9L787.373 39.2088C783.139 34.7824 781.051 29.7257 781.051 24H780.051H779.051C779.051 30.2743 781.362 35.8176 785.928 40.5912L786.651 39.9ZM780.051 24H781.051C781.051 18.276 783.138 13.3273 787.358 9.10709L786.651 8.39999L785.944 7.69289C781.364 12.2727 779.051 17.724 779.051 24H780.051ZM786.651 8.39999L787.358 9.10709C791.788 4.67721 796.84 2.49999 802.551 2.49999V1.49999V0.499992C796.262 0.499992 790.714 2.92278 785.944 7.69289L786.651 8.39999ZM802.551 1.49999V2.49999C808.26 2.49999 813.204 4.67501 817.428 9.09121L818.151 8.39999L818.873 7.70877C814.298 2.92497 808.842 0.499992 802.551 0.499992V1.49999ZM818.151 8.39999L817.46 9.12263C821.876 13.3468 824.051 18.291 824.051 24H825.051H826.051C826.051 17.709 823.626 12.2532 818.842 7.67735L818.151 8.39999ZM825.051 24H824.051C824.051 29.7111 821.874 34.763 817.444 39.1929L818.151 39.9L818.858 40.6071C823.628 35.837 826.051 30.2889 826.051 24H825.051ZM818.151 39.9L817.444 39.1929C813.223 43.4131 808.275 45.5 802.551 45.5V46.5V47.5C808.827 47.5 814.278 45.1869 818.858 40.6071L818.151 39.9ZM781.551 216H782.551V66H781.551H780.551V216H781.551ZM781.551 66V67H823.551V66V65H781.551V66ZM823.551 66H822.551V216H823.551H824.551V66H823.551ZM823.551 216V215H781.551V216V217H823.551V216ZM861.133 93H862.133V92H861.133V93ZM844.633 93H843.633V94H844.633V93ZM844.633 66V65H843.633V66H844.633ZM861.133 66V67H862.133V66H861.133ZM876.433 17.1L877.103 17.8426L877.103 17.8419L876.433 17.1ZM951.133 10.5L950.737 11.4183L950.745 11.4216L951.133 10.5ZM964.633 18L965.504 18.4902L965.963 17.6749L965.18 17.163L964.633 18ZM951.133 42V43H951.718L952.004 42.4902L951.133 42ZM948.133 42L947.487 42.7634L947.766 43H948.133V42ZM940.333 36L940.902 35.1778L940.901 35.1768L940.333 36ZM908.833 36.6L909.574 37.2709L909.582 37.2623L909.59 37.2536L908.833 36.6ZM903.133 66H902.133V67H903.133V66ZM940.633 66H941.633V65H940.633V66ZM940.633 93V94H941.633V93H940.633ZM903.133 93V92H902.133V93H903.133ZM903.133 216V217H904.133V216H903.133ZM861.133 216H860.133V217H861.133V216ZM861.133 93V92H844.633V93V94H861.133V93ZM844.633 93H845.633V66H844.633H843.633V93H844.633ZM844.633 66V67H861.133V66V65H844.633V66ZM861.133 66H862.133V54H861.133H860.133V66H861.133ZM861.133 54H862.133C862.133 38.845 867.14 26.8288 877.103 17.8426L876.433 17.1L875.763 16.3574C865.326 25.7711 860.133 38.355 860.133 54H861.133ZM876.433 17.1L877.103 17.8419C887.268 8.65442 901.401 3.99998 919.633 3.99998V2.99998V1.99998C901.064 1.99998 886.397 6.74556 875.762 16.3581L876.433 17.1ZM919.633 2.99998V3.99998C928.859 3.99998 939.221 6.4547 950.737 11.4183L951.133 10.5L951.529 9.58166C939.844 4.54528 929.207 1.99998 919.633 1.99998V2.99998ZM951.133 10.5L950.745 11.4216C954.469 12.9897 958.913 15.4552 964.086 18.837L964.633 18L965.18 17.163C959.952 13.7448 955.397 11.2103 951.521 9.57835L951.133 10.5ZM964.633 18L963.761 17.5097L950.261 41.5097L951.133 42L952.004 42.4902L965.504 18.4902L964.633 18ZM951.133 42V41H948.133V42V43H951.133V42ZM948.133 42L948.779 41.2366C946.156 39.0174 943.53 36.9975 940.902 35.1778L940.333 36L939.764 36.8222C942.335 38.6025 944.91 40.5826 947.487 42.7634L948.133 42ZM940.333 36L940.901 35.1768C934.963 31.0822 928.869 29 922.633 29V30V31C928.397 31 934.102 32.9178 939.765 36.8232L940.333 36ZM922.633 30V29C916.918 29 912.049 31.3455 908.076 35.9464L908.833 36.6L909.59 37.2536C913.216 33.0545 917.548 31 922.633 31V30ZM908.833 36.6L908.091 35.9291C904.079 40.3635 902.133 46.43 902.133 54H903.133H904.133C904.133 46.77 905.986 41.2365 909.574 37.2709L908.833 36.6ZM903.133 54H902.133V66H903.133H904.133V54H903.133ZM903.133 66V67H940.633V66V65H903.133V66ZM940.633 66H939.633V93H940.633H941.633V66H940.633ZM940.633 93V92H903.133V93V94H940.633V93ZM903.133 93H902.133V216H903.133H904.133V93H903.133ZM903.133 216V215H861.133V216V217H903.133V216ZM861.133 216H862.133V93H861.133H860.133V216H861.133ZM962.303 274.5L962.67 273.57L962.638 273.557L962.604 273.546L962.303 274.5ZM952.703 270L951.778 269.619L951.472 270.364L952.134 270.822L952.703 270ZM963.203 244.5V243.5H962.533L962.278 244.119L963.203 244.5ZM966.203 244.5L966.91 243.793L966.617 243.5H966.203V244.5ZM971.003 248.4L971.537 247.555L971.495 247.528L971.45 247.506L971.003 248.4ZM995.903 246.6L995.234 245.857L995.903 246.6ZM1004.6 231L1003.64 230.73L1003.64 230.737L1003.64 230.744L1004.6 231ZM1008.8 216L1009.77 216.27L1010.12 215H1008.8V216ZM997.403 216L996.453 216.313L996.68 217H997.403V216ZM947.903 66V65H946.52L946.953 66.3134L947.903 66ZM987.203 66L988.159 65.7059L987.942 65H987.203V66ZM1017.2 163.5L1018.17 163.257L1018.17 163.231L1018.16 163.206L1017.2 163.5ZM1019 174L1020 173.9L1020 173.895L1019 174ZM1019.6 180L1018.61 180.1L1018.7 181H1019.6V180ZM1020.8 180V181H1021.71L1021.8 180.1L1020.8 180ZM1021.4 174L1020.41 173.895L1020.41 173.9L1021.4 174ZM1023.2 163.5L1022.24 163.247L1022.23 163.257L1023.2 163.5ZM1048.7 66V65H1047.93L1047.74 65.747L1048.7 66ZM1090.7 66L1091.66 66.2874L1092.05 65H1090.7V66ZM1041.2 231L1042.16 231.298L1042.16 231.287L1041.2 231ZM985.703 279V278C977.832 278 970.156 276.525 962.67 273.57L962.303 274.5L961.936 275.43C969.65 278.475 977.575 280 985.703 280V279ZM962.303 274.5L962.604 273.546C958.876 272.369 955.772 270.908 953.272 269.178L952.703 270L952.134 270.822C954.834 272.692 958.13 274.231 962.002 275.454L962.303 274.5ZM952.703 270L953.628 270.381L964.128 244.881L963.203 244.5L962.278 244.119L951.778 269.619L952.703 270ZM963.203 244.5V245.5H966.203V244.5V243.5H963.203V244.5ZM966.203 244.5L965.496 245.207C967.507 247.218 969.202 248.618 970.556 249.294L971.003 248.4L971.45 247.506C970.404 246.982 968.899 245.782 966.91 243.793L966.203 244.5ZM971.003 248.4L970.469 249.245C974.409 251.734 978.491 253 982.703 253V252V251C978.915 251 975.198 249.866 971.537 247.555L971.003 248.4ZM982.703 252V253C987.781 253 992.412 251.087 996.572 247.343L995.903 246.6L995.234 245.857C991.394 249.313 987.226 251 982.703 251V252ZM995.903 246.6L996.572 247.343C1000.75 243.579 1003.74 238.187 1005.57 231.256L1004.6 231L1003.64 230.744C1001.87 237.413 999.051 242.421 995.234 245.857L995.903 246.6ZM1004.6 231L1005.57 231.27L1009.77 216.27L1008.8 216L1007.84 215.73L1003.64 230.73L1004.6 231ZM1008.8 216V215H997.403V216V217H1008.8V216ZM997.403 216L998.353 215.687L948.853 65.6866L947.903 66L946.953 66.3134L996.453 216.313L997.403 216ZM947.903 66V67H987.203V66V65H947.903V66ZM987.203 66L986.247 66.2941L1016.25 163.794L1017.2 163.5L1018.16 163.206L988.159 65.7059L987.203 66ZM1017.2 163.5L1016.23 163.743C1017.02 166.891 1017.61 170.344 1018.01 174.105L1019 174L1020 173.895C1019.59 170.056 1018.99 166.509 1018.17 163.257L1017.2 163.5ZM1019 174L1018.01 174.1L1018.61 180.1L1019.6 180L1020.6 179.9L1020 173.9L1019 174ZM1019.6 180V181H1020.8V180V179H1019.6V180ZM1020.8 180L1021.8 180.1L1022.4 174.1L1021.4 174L1020.41 173.9L1019.81 179.9L1020.8 180ZM1021.4 174L1022.4 174.105C1022.79 170.344 1023.39 166.891 1024.17 163.743L1023.2 163.5L1022.23 163.257C1021.42 166.509 1020.81 170.056 1020.41 173.895L1021.4 174ZM1023.2 163.5L1024.17 163.753L1049.67 66.253L1048.7 66L1047.74 65.747L1022.24 163.247L1023.2 163.5ZM1048.7 66V67H1090.7V66V65H1048.7V66ZM1090.7 66L1089.75 65.7126L1040.25 230.713L1041.2 231L1042.16 231.287L1091.66 66.2874L1090.7 66ZM1041.2 231L1040.25 230.702C1035.28 246.588 1028.24 258.403 1019.17 266.244C1010.12 274.07 998.99 278 985.703 278V279V280C999.417 280 1011.03 275.93 1020.48 267.756C1029.92 259.597 1037.12 247.412 1042.16 231.298L1041.2 231Z" fill="white" mask="url(#path-1-outside-1_64_2)"/>
</svg>
